<svg xmlns="http://www.w3.org/2000/svg" viewBox="0 0 1200 676" width="1200" height="676">
  <defs>
    <linearGradient id="g" x1="0" y1="0" x2="1" y2="1">
      <stop offset="0%" stop-color="#0f766e"/>
      <stop offset="60%" stop-color="#0d9488"/>
      <stop offset="100%" stop-color="#fda4af"/>
    </linearGradient>
    <radialGradient id="r" cx="85%" cy="20%" r="55%">
      <stop offset="0%" stop-color="#ffffff" stop-opacity="0.45"/>
      <stop offset="100%" stop-color="#ffffff" stop-opacity="0"/>
    </radialGradient>
  </defs>
  <rect width="1200" height="676" fill="url(#g)"/>
  <rect width="1200" height="676" fill="url(#r)"/>
  <g opacity="0.55" fill="#ffffff">
    <circle cx="1010" cy="160" r="82"/>
    <circle cx="80" cy="560" r="50"/>
    <circle cx="1110" cy="560" r="36"/>
  </g>
  <g transform="translate(100 260)" fill="none" stroke="#ffffff" stroke-width="5" stroke-linecap="round" stroke-linejoin="round">
    <path d="M0,220 C20,80 100,40 180,130 C240,50 320,100 360,190 L360,280" />
    <g transform="translate(390 220)">
      <circle cx="0" cy="-30" r="22" stroke-width="6"/>
      <path d="M-24,0 L24,0 L0,30 Z" stroke-width="6"/>
    </g>
    <g transform="translate(600 280)">
      <circle cx="0" cy="-30" r="22" stroke-width="6"/>
      <path d="M-24,0 L24,0 L0,30 Z" stroke-width="6"/>
    </g>
  </g>
  <text x="100" y="130" fill="#fff" font-family="-apple-system,Segoe UI,Roboto,sans-serif" font-size="34" font-weight="700" opacity="0.95">Основы МГТ</text>
  <text x="100" y="180" fill="#fff" font-family="-apple-system,Segoe UI,Roboto,sans-serif" font-size="18" opacity="0.85">Для врачей и пациентов · доказательная база ESHRE 2024</text>
</svg>
